<?xml version="1.0" encoding="UTF-8" standalone="no"?><!DOCTYPE svg PUBLIC "-//W3C//DTD SVG 1.1//EN" "http://www.w3.org/Graphics/SVG/1.1/DTD/svg11.dtd"><svg width="100%" height="100%" viewBox="0 0 110 110" version="1.1" xmlns="http://www.w3.org/2000/svg" xmlns:xlink="http://www.w3.org/1999/xlink" xml:space="preserve" xmlns:serif="http://www.serif.com/" style="fill-rule:evenodd;clip-rule:evenodd;stroke-linejoin:round;stroke-miterlimit:2;"><circle cx="55" cy="55" r="55" style="fill:#dc199b;"/><path d="M49.733,51.716c1.693,-1.523 4.065,-2.538 6.606,-2.538c7.114,0 10.332,6.429 10.332,15.566c0,9.137 -3.896,16.581 -10.163,16.581c-4.573,0 -6.775,-2.876 -6.775,-8.629l0,-20.98l0.001,0Zm-10.332,26.902c4.234,3.553 10.671,5.245 17.277,5.245c11.518,0 20.495,-8.291 20.495,-23.011c0,-11.506 -5.759,-18.104 -14.905,-18.104c-5.081,0 -9.824,2.707 -12.534,5.752l0,-24.364l-14.905,4.06l0,1.523l4.573,2.369l0,46.529l-0,-0.001Z" style="fill:#fff;fill-rule:nonzero;"/></svg>